Coordinates
version=1
nRows=9
nColumns=36
inDegrees=yes

Units are S.I. units (second, meters, Newtons, ...)
If the header above contains a line with 'inDegrees', this indicates whether rotational values are in degrees (yes) or radians (no).

endheader
time	pelvis_tilt	pelvis_list	pelvis_rotation	pelvis_tx	pelvis_ty	pelvis_tz	hip_flexion_r	hip_adduction_r	hip_rotation_r	knee_angle_r	knee_angle_r_beta	ankle_angle_r	subtalar_angle_r	mtp_angle_r	hip_flexion_l	hip_adduction_l	hip_rotation_l	knee_angle_l	knee_angle_l_beta	ankle_angle_l	subtalar_angle_l	mtp_angle_l	lumbar_extension	lumbar_bending	lumbar_rotation	arm_flex_r	arm_add_r	arm_rot_r	elbow_flex_r	pro_sup_r	arm_flex_l	arm_add_l	arm_rot_l	elbow_flex_l	pro_sup_l
      0.00000000	     -2.35534762	     -1.03340287	      2.55836015	      0.82036452	      0.91250093	     -0.01229210	      2.25275036	      0.25774285	     -0.74757368	      7.15027778	      0.12479589	     10.65206040	     -9.13248167	     -6.75418371	      3.37139863	     -2.57919257	     -2.21916968	     10.87193757	      0.18975111	     12.72597409	     -9.11388396	     -6.75418371	     -1.92640333	      0.39577501	     -1.92184558	      1.76147257	     -8.70743673	     -2.02112988	     18.76169402	     94.97245775	      3.99255742	    -10.91837165	      3.18568547	     17.89130072	     94.56527931
      0.01666670	     -1.54006371	     -1.00133227	      1.58070080	      0.82719847	      0.91164666	     -0.00946642	     -0.42036865	      0.52156032	     -0.98403293	      3.84390464	      0.06708879	     10.62748034	     -9.21065460	     -6.78262504	      0.46532951	     -2.41085128	     -4.72763763	      7.37565681	      0.12872950	     12.70917658	     -8.31813902	     -6.78262504	     -2.03417800	      0.29506157	     -0.93024986	      1.64424255	     -8.90250995	     -1.13098870	     18.13939695	     95.74055038	      3.54978046	    -10.81769257	      2.18506118	     17.39881304	     94.44645655
      0.03333330	     -1.54714710	     -1.03631691	      1.77663495	      0.82051835	      0.91363479	     -0.00694747	     -0.52328644	      0.79311776	     -1.41740862	      3.50209738	      0.06112313	     11.03919209	     -9.50934573	     -6.78480702	      0.63387942	     -2.43241392	     -5.81813574	      7.29868195	      0.12738603	     12.70170726	     -8.80174388	     -6.78480702	     -2.08963191	      0.16301799	     -1.20171799	      1.63311995	     -8.75597624	     -1.02716012	     18.17951158	     95.83147800	      3.89400455	    -11.12882237	      2.07579133	     17.39503484	     94.44929627
      0.05000000	     -1.55619140	     -1.04242835	      2.08630531	      0.82555791	      0.91638343	     -0.01044728	     -0.77072888	      0.80121688	     -2.00974069	      3.17463938	      0.05540791	     11.19714628	     -9.78538973	     -6.78655551	      0.64306201	     -2.36235259	     -6.79651387	      7.26155632	      0.12673807	     12.64522109	     -9.16106781	     -6.78655551	     -2.02156755	      0.07074847	     -1.44164101	      1.59620120	     -8.69613909	     -0.91303896	     18.19559190	     95.93039285	      4.03175278	    -11.06117239	      2.01837303	     17.34606435	     94.46496653
      0.06666670	     -1.28943731	     -0.88721027	      2.40189459	      0.81877085	      0.91105155	     -0.01439763	     -1.12361308	      0.63125533	     -2.62103652	      2.87398298	      0.05016047	     11.26380681	     -9.53509110	     -7.10023551	      0.62157896	     -2.15517267	     -7.29661597	      7.71361363	      0.13462796	     12.76834500	     -8.87044149	     -7.10023551	     -2.35568648	     -0.10360470	     -3.15039283	      2.86175769	     -8.84114678	      2.78026459	     17.51045520	    102.12478096	      3.47359411	    -10.80610949	     -3.92120505	     17.28654986	     98.65926875
      0.08333330	     -1.59325723	     -0.92904359	      2.70086578	      0.81121270	      0.91310048	     -0.01156436	     -0.45590016	      0.67385402	     -3.12410575	      3.18101433	      0.05551917	     11.19460779	     -9.82775395	     -7.11072920	      1.52733910	     -2.24138785	     -7.60823121	      8.51449359	      0.14860595	     13.03814902	     -9.07826931	     -7.11072920	     -2.31351201	     -0.16304937	     -3.31379479	      3.10073019	     -8.76284604	      2.99027828	     17.60343701	    102.22934567	      3.86026902	    -10.82044426	     -3.82315013	     17.39524392	     98.81379566
      0.10000000	     -1.67736702	     -0.90908561	      2.68729596	      0.81701556	      0.91598932	     -0.00852646	     -0.15006786	      0.66176294	     -3.44768757	      3.38670035	      0.05910907	     10.96203373	     -9.92475748	     -7.11493892	      1.85034142	     -2.27743735	     -8.16170424	      8.91076614	      0.15552221	     12.96621558	     -9.29024739	     -7.11493892	     -2.47666007	     -0.22790215	     -3.24280274	      3.30376697	     -8.59474297	      3.18422038	     17.68453125	    102.32410098	      3.99843405	    -10.90604350	     -3.80183728	     17.41533979	     98.89489608
      0.11666670	     -2.10342951	     -0.87553180	      2.66701406	      0.80988038	      0.91013175	     -0.01184135	      0.65625053	      0.59456131	     -3.67599131	      3.73282885	      0.06515015	     10.68650482	    -10.16764694	     -7.19594393	      2.68073017	     -2.26328546	     -8.61491573	      9.47848720	      0.16543081	     13.14441325	     -9.36937926	     -7.19594393	     -2.18131976	     -0.27850722	     -3.37637391	      3.66921712	     -8.77053789	      5.58013168	     17.62953878	    102.31626166	      3.91002981	    -11.07274370	     -3.44613361	     17.71157482	     99.05680581
      0.13333330	     -2.31069530	     -0.89911714	      2.70588235	      0.80956711	      0.91215740	     -0.01176800	      1.16364222	      0.61964690	     -3.76760893	      4.02150269	      0.07018846	     10.36342151	    -10.56183074	     -7.24661888	      3.20266905	     -2.31666390	     -9.02697244	      9.89044514	      0.17262083	     13.30159505	     -9.40316372	     -7.24661888	     -2.18423353	     -0.27744474	     -3.28175810	      3.80867937	     -8.76377155	      6.02680844	     17.67046250	    101.99298879	      4.05686869	    -11.02675539	     -3.59838084	     17.83150601	     98.93136876
